<mxfile host="app.diagrams.net" modified="2024-06-20T13:49:25.724Z" agent="Mozilla/5.0 (Macintosh; Intel Mac OS X 10_15_7) AppleWebKit/537.36 (KHTML, like Gecko) Chrome/126.0.0.0 Safari/537.36" version="24.5.5" etag="BQ79vGZFOXDvzF3ETfAH" type="github">
  <diagram name="Page-1" id="cm7kJ1c5-QuyVWSwrFpH">
    <mxGraphModel>
      <root>
        <mxCell id="0" />
        <mxCell id="1" parent="0" />
      </root>
    </mxGraphModel>
  </diagram>
</mxfile>
